<svg width="21" height="21" viewBox="0 0 21 21" fill="none" xmlns="http://www.w3.org/2000/svg">
<path d="M9.37679 1.18966C9.67663 0.269381 10.9785 0.269382 11.2784 1.18966L13.0295 6.56406C13.1636 6.97568 13.5474 7.25426 13.9803 7.25426H19.641C20.6104 7.25426 21.0128 8.49529 20.2278 9.06405L15.6529 12.3787C15.3014 12.6333 15.1544 13.0856 15.2888 13.4983L17.0374 18.8649C17.3374 19.7858 16.2841 20.5527 15.4999 19.9845L10.9143 16.6621C10.5643 16.4085 10.0909 16.4085 9.74087 16.6621L5.15532 19.9845C4.37107 20.5527 3.31778 19.7858 3.6178 18.8649L5.36637 13.4983C5.50083 13.0856 5.35375 12.6333 5.00229 12.3787L0.427413 9.06405C-0.357594 8.49529 0.0447371 7.25426 1.01413 7.25426H6.67489C7.10781 7.25426 7.49157 6.97568 7.62569 6.56406L9.37679 1.18966Z" fill="#E5E5E5"/>
</svg>
